<svg width="75" height="40" viewBox="0 0 75 40" fill="none" xmlns="http://www.w3.org/2000/svg">
<path d="M36.9624 0.0188313C36.5049 0.0987052 36.0962 0.418201 35.8964 0.853069C35.8031 1.04832 35.7986 1.1415 35.7853 2.28192L35.772 3.50222L35.9274 4.10127C36.2162 5.20176 36.3628 6.24899 36.425 7.68672C36.4427 8.05947 36.4738 8.37452 36.496 8.38784C36.5493 8.4189 37.8509 8.4189 37.9042 8.38784C37.9264 8.37452 37.9575 8.03728 37.9752 7.64235C38.033 6.22237 38.1707 5.24613 38.4683 4.10127L38.6238 3.50222L38.5971 1.06163L38.4727 0.808695C38.1929 0.240703 37.5799 -0.0832297 36.9624 0.0188313Z" fill="#D4C19C"/>
<path d="M36.2696 8.90244C36.043 8.96456 35.8387 9.14206 35.7276 9.36393C35.6521 9.52812 35.6388 9.6213 35.6477 9.93193C35.6654 10.2514 35.6832 10.3224 35.7943 10.4822C35.8742 10.602 36.003 10.7085 36.1541 10.7839C36.3895 10.8948 36.4028 10.8993 37.2557 10.8815L38.1175 10.8682L38.3307 10.7351C38.6372 10.5443 38.7527 10.3091 38.7527 9.87868C38.7527 9.34175 38.5394 9.01781 38.1086 8.898C37.8909 8.84032 36.4783 8.84032 36.2696 8.90244ZM37.9709 9.74555C38.002 9.79436 38.002 9.86093 37.9709 9.94524L37.9309 10.0695L37.2202 10.0828C36.5894 10.0917 36.505 10.0872 36.4561 10.0162C36.425 9.9763 36.3984 9.90086 36.3984 9.84761C36.3984 9.66124 36.4695 9.64349 37.2157 9.6568C37.8243 9.67012 37.9264 9.67899 37.9709 9.74555Z" fill="#D4C19C"/>
<path d="M11.4117 10.5487C11.1496 10.6552 11.003 10.7529 10.8387 10.9392C10.5677 11.2321 10.4789 11.4762 10.4833 11.8888C10.4833 12.4524 10.5455 12.55 11.5361 13.544C12.2335 14.2451 12.4556 14.4359 12.7443 14.6046C13.7926 15.2081 14.8321 15.9846 15.7072 16.8233C15.9915 17.0984 16.2535 17.3247 16.2891 17.3247C16.3912 17.3247 17.2974 16.3928 17.2974 16.2908C17.2974 16.2375 17.102 16.0024 16.8221 15.7095C16.0048 14.8708 15.2097 13.8191 14.6988 12.9095C14.5078 12.5678 14.3523 12.3858 13.6105 11.6315C12.5888 10.5931 12.4911 10.5266 11.9225 10.5044C11.6915 10.4999 11.4917 10.5132 11.4117 10.5487Z" fill="#D4C19C"/>
<path d="M61.9178 10.6153C61.7046 10.7218 61.4869 10.917 60.8028 11.6049C60.2031 12.2128 59.91 12.5456 59.8078 12.732C59.2659 13.7215 58.2353 15.0749 57.4135 15.8825C57.2136 16.0778 57.0981 16.2242 57.0981 16.2863C57.0981 16.3973 58.0043 17.3247 58.1109 17.3247C58.1465 17.3247 58.3863 17.1206 58.6484 16.8677C59.5191 16.0245 60.4475 15.3145 61.4514 14.7244C61.98 14.4137 62.0555 14.3472 62.8595 13.5396C63.8501 12.55 63.9123 12.4524 63.9123 11.8888C63.9167 11.4673 63.8234 11.2277 63.548 10.9259C63.2726 10.6286 63.015 10.5177 62.5619 10.4999C62.2198 10.4866 62.1621 10.4999 61.9178 10.6153Z" fill="#D4C19C"/>
<path d="M35.665 11.9688C35.5673 12.0042 35.4118 12.0708 35.3185 12.1196L35.1453 12.2039L35.6294 12.5634C35.8915 12.7586 36.238 13.0204 36.3979 13.1447C36.9621 13.5795 38.0548 13.8014 38.7522 13.6239C38.9121 13.584 39.0587 13.5307 39.0809 13.5085C39.1387 13.4509 39.0854 13.3976 38.4013 12.7719C37.846 12.2616 37.7838 12.2172 37.424 12.0841C37.0776 11.9554 36.9843 11.9421 36.4423 11.9288C36.0248 11.9155 35.7894 11.9288 35.665 11.9688Z" fill="#D4C19C"/>
<path d="M38.7976 12.0752C38.6866 12.1107 38.5933 12.1506 38.5844 12.1551C38.5755 12.1639 38.8732 12.4701 39.2463 12.8429C39.7838 13.3753 39.9837 13.544 40.2147 13.6593C40.8543 13.9788 41.5073 14.1164 41.9959 14.0321C42.1558 14.0055 42.2935 13.9788 42.3024 13.97C42.3246 13.9478 42.1603 13.7303 41.6228 13.078C41.2186 12.581 41.1519 12.5189 40.841 12.3592C40.3568 12.1062 39.9348 11.9997 39.4195 11.9997C39.1574 12.0042 38.922 12.0308 38.7976 12.0752Z" fill="#D4C19C"/>
<path d="M33.0315 12.2306C32.6317 12.275 32.2852 12.386 32.0365 12.5457C31.921 12.6211 31.8232 12.6966 31.8232 12.7099C31.8232 12.7232 31.9476 12.7986 32.1031 12.8741C32.2541 12.9539 32.6006 13.1536 32.8671 13.3134C33.5201 13.7039 33.7156 13.7527 34.5773 13.7527C35.1814 13.7482 35.2969 13.7394 35.5146 13.6506C35.981 13.4643 35.981 13.4776 35.4835 13.1137C34.6884 12.5324 34.4085 12.3638 34.1642 12.3105C33.7955 12.2306 33.3335 12.1951 33.0315 12.2306Z" fill="#D4C19C"/>
<path d="M42.0751 12.5187C42.004 12.5276 41.9507 12.5498 41.9507 12.5631C41.9507 12.6075 42.9812 13.9653 43.079 14.0585C43.612 14.5333 44.4516 14.8972 45.0468 14.9016C45.22 14.9016 45.3799 14.8927 45.3933 14.8794C45.4288 14.8395 44.6337 13.5216 44.4649 13.3352C44.2694 13.1222 43.7453 12.7894 43.4343 12.6785C42.9768 12.5143 42.4882 12.4566 42.0751 12.5187Z" fill="#D4C19C"/>
<path d="M29.8549 12.9759C29.4196 13.0514 28.8288 13.3442 28.6111 13.5838C28.5356 13.6726 28.54 13.677 28.9887 13.8457C29.2419 13.9388 29.6283 14.0897 29.846 14.1873C30.188 14.3338 30.308 14.3604 30.6722 14.3826C31.4229 14.427 32.0804 14.2805 32.5068 13.9788L32.7156 13.8323L32.5246 13.7214C32.418 13.6593 32.0581 13.464 31.7161 13.2865L31.0987 12.9626L30.5834 12.9493C30.2991 12.9404 29.9704 12.9537 29.8549 12.9759Z" fill="#D4C19C"/>
<path d="M45.2557 13.4952C45.2734 13.5351 45.4023 13.7703 45.54 14.0144C45.6821 14.2629 45.8554 14.5823 45.9264 14.7243C46.153 15.1725 46.766 15.7095 47.3967 16.0023C47.6633 16.1266 48.2718 16.2597 48.3251 16.2065C48.3385 16.1931 48.2585 15.9624 48.1519 15.6917C47.6899 14.5602 47.5789 14.3827 47.0947 14.0144C46.5883 13.6327 46.0242 13.4197 45.5089 13.4197C45.2646 13.4197 45.2335 13.4286 45.2557 13.4952Z" fill="#D4C19C"/>
<path d="M27.0256 14.1122C26.4348 14.2364 25.964 14.4805 25.653 14.8177C25.4487 15.0396 25.4265 15.1061 25.5598 15.1061C25.6086 15.1061 25.9995 15.1949 26.4348 15.3058C27.2966 15.5233 27.4521 15.5366 28.0206 15.439C28.6647 15.328 29.2289 15.0662 29.4999 14.7556L29.5976 14.6446L29.3888 14.5603C29.2733 14.516 28.8913 14.3828 28.5404 14.263C27.8341 14.019 27.5764 13.9923 27.0256 14.1122Z" fill="#D4C19C"/>
<path d="M48.3608 14.7996C48.4941 15.1235 48.845 15.9888 48.9427 16.2418C49.1781 16.863 50.151 17.7239 50.7773 17.8614C50.9061 17.8925 51.026 17.9014 51.0394 17.8881C51.0927 17.8348 50.7107 16.4015 50.5685 16.122C50.3508 15.696 49.6268 15.088 49.1071 14.8883C48.7872 14.7685 48.3208 14.7108 48.3608 14.7996Z" fill="#D4C19C"/>
<path d="M24.2709 15.6161C23.9111 15.7182 23.3469 15.9978 23.0937 16.2108C22.8716 16.3883 22.5473 16.8143 22.5918 16.8586C22.6051 16.8719 22.8539 16.903 23.1426 16.9252C23.4358 16.9518 23.8355 16.9918 24.0354 17.0228C24.3508 17.0628 24.453 17.0583 24.7684 16.9918C25.2703 16.8853 25.7501 16.69 26.0743 16.4548C26.3942 16.2285 26.6651 15.9179 26.5718 15.8824C26.5408 15.8735 26.2431 15.8025 25.9144 15.7271C25.1815 15.5585 24.6129 15.523 24.2709 15.6161Z" fill="#D4C19C"/>
<path d="M17.8795 16.5082C17.6396 16.6102 16.6402 17.6175 16.5158 17.8793C16.3248 18.2787 16.4136 18.6515 16.769 18.9976C17.1199 19.3348 17.4575 19.4014 17.8529 19.215C18.0972 19.0996 19.0966 18.119 19.2254 17.8705C19.3054 17.7107 19.3187 17.3069 19.2521 17.1294C19.1899 16.9608 18.8612 16.6191 18.6657 16.5215C18.4659 16.4194 18.0972 16.4106 17.8795 16.5082ZM18.417 17.3114C18.4525 17.3557 18.4969 17.4179 18.5147 17.4489C18.5503 17.511 17.6485 18.4606 17.5108 18.505C17.4131 18.5361 17.1954 18.363 17.2176 18.2743C17.2265 18.2432 17.4397 17.9992 17.6974 17.7329C18.1771 17.2359 18.2926 17.1649 18.417 17.3114Z" fill="#D4C19C"/>
<path d="M55.7432 16.5128C55.5478 16.6148 55.2812 16.8766 55.1835 17.0675C55.0813 17.2671 55.0636 17.7597 55.1569 17.7952C55.188 17.8041 55.4189 17.8085 55.6677 17.8041L56.1163 17.7908L55.9875 17.6399C55.8543 17.4934 55.8543 17.458 55.9786 17.3115C56.0897 17.1828 56.183 17.2228 56.4895 17.5245L56.7871 17.8174L57.3335 17.8041L57.8754 17.7908L57.2979 17.2006C56.9648 16.8589 56.6494 16.5749 56.5428 16.5261C56.3207 16.4196 55.9342 16.4107 55.7432 16.5128Z" fill="#D4C19C"/>
<path d="M51.2877 16.535C51.2921 16.5661 51.3721 16.8678 51.4565 17.2006L51.6075 17.813H52.3538C52.7624 17.813 53.1 17.7952 53.1 17.7775C53.1 17.7021 52.6025 17.1429 52.3804 16.9654C52.1095 16.7524 51.8074 16.5927 51.5897 16.5483C51.5053 16.535 51.3987 16.5084 51.3543 16.4951C51.2966 16.4818 51.2744 16.4951 51.2877 16.535Z" fill="#D4C19C"/>
<path d="M30.7701 16.61C30.5924 16.7209 30.4902 16.9117 30.4902 17.1425C30.4902 17.2667 30.7701 18.0033 31.4941 19.7872C32.0494 21.1451 32.4936 22.2588 32.4847 22.2633C32.4758 22.2722 31.9694 22.4408 31.3564 22.6405C26.87 24.1226 23.2408 25.8842 21.2819 27.5261C20.5711 28.1251 20.118 28.6665 19.8382 29.2522C19.6827 29.5806 19.6738 29.6161 19.6738 30.0599C19.6738 30.4859 19.6872 30.548 19.7982 30.761C20.4778 32.0478 22.7699 32.8333 26.8255 33.1705C27.6562 33.2371 31.8495 33.2726 31.8895 33.2149C31.9072 33.1838 31.8451 33.1661 31.7118 33.1661C31.4231 33.1661 30.3081 33.0463 29.5796 32.9398C27.7895 32.6735 26.2703 32.1898 25.5018 31.6396C23.956 30.5391 24.2403 29.0792 26.3325 27.3752C27.6295 26.3191 29.9216 25.0722 32.5469 23.9983C32.809 23.8918 33.0444 23.8031 33.0711 23.8031C33.1288 23.8031 33.0089 23.5146 34.9767 28.3736C35.2921 29.1413 35.7629 30.3084 36.0339 30.9695C36.3004 31.6263 37.1533 33.7341 37.9307 35.651C38.708 37.568 39.3877 39.2054 39.4454 39.2942C39.5698 39.4939 39.8319 39.7024 40.1162 39.8355C40.3249 39.9287 40.3738 39.9332 42.1728 39.9465C43.1856 39.9553 44.2162 39.9553 44.4605 39.9465L44.9047 39.9332L44.6781 39.8533C44.5582 39.8133 44.265 39.7468 44.034 39.7113C43.4832 39.6225 43.1234 39.4983 42.7947 39.2853C42.5637 39.1344 42.5104 39.1167 42.4305 39.161C42.3461 39.2054 42.3194 39.1965 42.235 39.09C42.0884 38.9037 41.9507 38.5132 41.9507 38.278C41.9507 37.9319 41.9951 37.9141 42.2705 38.1449C42.3994 38.2602 42.6392 38.4156 42.808 38.491C43.0968 38.633 43.159 38.6862 43.0523 38.7217C43.0213 38.735 43.0568 38.7972 43.1323 38.8859C43.2434 39.0102 43.3055 39.0368 43.4966 39.059C43.7808 39.0856 43.9052 38.9969 43.9052 38.775C43.9052 38.6951 43.7542 38.2114 43.5721 37.7056C43.3855 37.1997 43.1412 36.5252 43.0301 36.2146L42.8214 35.6422L41.471 35.7043L41.3955 35.5445C41.351 35.4558 41.3333 35.367 41.3466 35.3493C41.3644 35.3315 41.6664 35.3138 42.0218 35.3049C42.3727 35.2916 42.6614 35.2738 42.6614 35.2605C42.6614 35.2472 42.6304 35.1319 42.5859 35.0032C42.5193 34.7946 42.4971 34.7635 42.3239 34.697C42.0795 34.6038 41.7864 34.302 41.7242 34.0846C41.622 33.6941 41.8041 33.4989 42.2661 33.4989C42.5149 33.4989 42.5904 33.5211 42.7725 33.632C43.0168 33.7829 43.2167 34.0447 43.2611 34.2621C43.2878 34.4219 43.1989 34.6437 43.079 34.7103C43.0124 34.7458 43.0168 34.7769 43.1323 34.9899L43.2611 35.2295L43.8208 35.2162L44.3761 35.2073L44.456 35.367C44.496 35.4558 44.5182 35.5401 44.5049 35.5534C44.4916 35.5712 44.2739 35.5889 44.0252 35.5978C43.7764 35.6067 43.5543 35.6333 43.5365 35.651C43.5143 35.6688 43.8386 36.3433 44.2561 37.142C44.8158 38.2159 45.0646 38.6463 45.189 38.7661C45.4599 39.019 45.8597 39.0501 45.9486 38.8238C45.9974 38.6951 45.9663 38.5797 45.8775 38.5797C45.7798 38.5797 45.8064 38.4732 45.9308 38.3534C46.0685 38.2292 46.1707 38.0117 46.1707 37.8476C46.1707 37.6834 46.2506 37.71 46.4994 37.9674C46.837 38.3179 47.1657 39.0501 46.948 38.9614C46.9125 38.948 46.8547 38.9259 46.8281 38.9125C46.797 38.9037 46.6948 39.0013 46.6015 39.13C46.4239 39.3785 46.1351 39.556 45.8153 39.6225C45.6243 39.658 45.1934 39.8666 45.1934 39.9198C45.1934 39.942 46.1396 39.9509 47.3434 39.9465C49.44 39.9332 49.4978 39.9287 49.6221 39.84C49.8087 39.7068 49.9109 39.4805 49.8887 39.2587C49.8753 39.1122 49.56 38.5265 48.4939 36.6628C47.7343 35.336 46.9169 33.9027 46.6726 33.4767C46.4283 33.0507 46.1485 32.5581 46.0463 32.3895C45.9486 32.2165 45.1357 30.792 44.2384 29.2167C43.3411 27.6415 41.9863 25.2719 41.2311 23.9451C40.4715 22.6183 39.8585 21.5267 39.8674 21.5222C39.9296 21.469 42.0618 20.9232 43.5943 20.5637C48.1696 19.4899 52.7493 18.7888 57.1603 18.4782C57.8666 18.4293 58.4885 18.385 58.5373 18.3805C58.8749 18.3495 56.3607 18.3273 55.1214 18.3539C50.706 18.4471 45.4155 19.1038 40.356 20.1866C39.7341 20.3197 39.2233 20.4262 39.2189 20.4173C39.21 20.4129 38.9124 19.8893 38.5525 19.2547C38.1927 18.6201 37.8329 17.99 37.7574 17.8569C37.6775 17.7238 37.5486 17.5019 37.4687 17.3644C37.291 17.0449 37.0467 16.8008 36.7713 16.6588L36.5536 16.5479L33.7329 16.5346C30.9922 16.5257 30.9078 16.5257 30.7701 16.61Z" fill="#D4C19C"/>
<path d="M21.6064 17.5377C20.8379 17.8172 20.2338 18.3453 20.0117 18.9266L19.9673 19.0464L20.8424 19.0242C21.4243 19.0109 21.7974 18.9798 21.9618 18.9355C22.3527 18.829 22.8946 18.5538 23.2011 18.3098C23.4632 18.0968 23.8274 17.6797 23.8274 17.5865C23.8274 17.5421 23.6586 17.511 23.0501 17.4578C22.2638 17.3868 21.984 17.4045 21.6064 17.5377Z" fill="#D4C19C"/>
<path d="M57.1869 18.9933C57.1247 19.0022 56.8982 19.02 56.6805 19.0377C56.2852 19.0643 56.2808 19.0643 56.3874 19.1442C56.7116 19.3883 57.218 19.3661 57.5112 19.0998L57.6533 18.9712L57.4757 18.9756C57.3779 18.9756 57.2491 18.9845 57.1869 18.9933Z" fill="#D4C19C"/>
<path d="M54.4596 19.3036C54.2419 19.3391 54.0553 19.3746 54.0464 19.3835C54.0376 19.3924 54.0509 19.6364 54.0775 19.9249C54.122 20.4352 54.1308 20.4707 54.3663 20.941C54.6683 21.5534 54.9393 21.8862 55.3657 22.1702L55.6989 22.3921L55.7122 21.4247L55.7211 20.4618L55.5212 20.058C55.2813 19.5699 55.037 19.2326 54.9304 19.2371C54.8904 19.2415 54.6772 19.2726 54.4596 19.3036Z" fill="#D4C19C"/>
<path d="M53.0868 19.5168C52.9448 19.5434 52.825 19.5833 52.825 19.61C52.825 19.6588 53.2731 19.9117 53.4462 19.9649C53.5305 19.9916 53.5438 19.9783 53.5438 19.8629C53.5438 19.7919 53.5305 19.6676 53.5172 19.5922C53.4861 19.4413 53.4817 19.4413 53.0868 19.5168Z" fill="#D4C19C"/>
<path d="M20.1047 19.5924C19.6294 19.6235 19.5184 19.6456 19.2652 19.761C18.4789 20.1293 17.8037 20.8482 17.7104 21.4162L17.6882 21.5759L17.9459 21.5138C18.0925 21.4827 18.4878 21.4117 18.8298 21.3629C19.6827 21.2342 20.0958 21.039 20.6911 20.4799C20.962 20.2181 21.1353 19.9873 21.2641 19.7078L21.3396 19.5436L20.9931 19.548C20.8066 19.5525 20.4068 19.5702 20.1047 19.5924Z" fill="#D4C19C"/>
<path d="M56.2852 21.5934C56.2274 22.6495 56.2452 23.0222 56.3651 23.3861C56.6006 24.0828 56.9337 24.5975 57.3335 24.8682C57.449 24.9481 57.5512 25.0058 57.5556 24.9969C57.5645 24.988 57.6267 24.5887 57.6933 24.1094C57.8221 23.182 57.8177 23.1243 57.64 22.6051C57.4357 22.0194 57.0714 21.5135 56.645 21.234C56.4984 21.1319 56.3607 21.052 56.3429 21.052C56.3252 21.052 56.2985 21.2961 56.2852 21.5934Z" fill="#D4C19C"/>
<path d="M18.5633 21.944C17.8525 22.0815 17.3328 22.2058 17.2084 22.2723C17.1463 22.3034 16.9552 22.441 16.782 22.5741C16.2978 22.9513 15.938 23.466 15.8092 23.963C15.7204 24.3136 15.7204 24.3934 15.8225 24.3446C15.8625 24.3224 16.2667 24.1893 16.7198 24.0518C17.3328 23.8609 17.6038 23.7544 17.7815 23.6346C18.1102 23.4083 18.5944 22.9291 18.7765 22.6406C18.9853 22.3167 19.1452 21.8419 19.043 21.8552C19.0208 21.8552 18.8076 21.8952 18.5633 21.944Z" fill="#D4C19C"/>
<path d="M58.2795 23.9233C58.2662 23.9943 58.244 24.1274 58.2262 24.2251C58.2129 24.3227 58.1507 24.6688 58.0885 24.9972C57.9863 25.5385 57.9819 25.6229 58.0263 25.9867C58.1196 26.7011 58.4927 27.5088 58.8614 27.7839L58.9991 27.8904L59.1146 27.5221C59.5144 26.1953 59.5277 26.0843 59.3767 25.3788C59.2523 24.8108 58.8037 24.0919 58.4394 23.8789L58.3062 23.8035L58.2795 23.9233Z" fill="#D4C19C"/>
<path d="M16.4092 24.7131C15.9827 24.8639 15.5741 25.0148 15.4985 25.0547C15.3209 25.1524 14.8145 25.676 14.619 25.9689C14.388 26.3061 14.2681 26.6567 14.2414 27.0516L14.2192 27.3977L14.9477 27.0471C15.3475 26.8563 15.7251 26.6833 15.7828 26.6655C15.9339 26.6212 16.538 26.0088 16.7556 25.6804C16.9733 25.3565 17.0932 25.0681 17.1599 24.7131C17.1865 24.5711 17.2043 24.4512 17.1954 24.4468C17.191 24.4468 16.8356 24.5622 16.4092 24.7131Z" fill="#D4C19C"/>
<path d="M59.8877 26.8074C59.8743 26.8251 59.8521 26.9006 59.8344 26.976C59.8166 27.047 59.6967 27.4419 59.5634 27.8502C59.3768 28.4137 59.3191 28.6534 59.3191 28.853C59.3191 29.2835 59.4035 29.7849 59.5412 30.1621C59.6745 30.5171 59.9765 30.9741 60.0387 30.912C60.092 30.8588 60.5984 29.7183 60.7006 29.4122C60.8738 28.8974 60.7583 28.0188 60.4296 27.4064C60.2875 27.1402 59.9232 26.7364 59.8877 26.8074Z" fill="#D4C19C"/>
<path d="M29.3309 27.3312C28.5757 27.5353 28.0383 28.1344 27.9183 28.8932C27.7229 30.1401 28.8556 31.2583 30.0994 31.0453C31.2543 30.8456 31.9473 29.7052 31.6008 28.5825C31.3121 27.6551 30.2593 27.0738 29.3309 27.3312Z" fill="#D4C19C"/>
<path d="M14.8543 27.6951C14.188 28.0323 14.0636 28.1122 13.8637 28.3341C13.5794 28.6491 13.3662 28.9908 13.2196 29.3857C13.1264 29.6254 13.1041 29.7674 13.1041 30.1135C13.0997 30.3487 13.113 30.5528 13.1264 30.5705C13.1441 30.5838 13.424 30.4197 13.7482 30.2022C14.077 29.9892 14.4145 29.7674 14.5034 29.7141C14.8632 29.4967 15.3962 28.7112 15.565 28.1521C15.6539 27.8681 15.7072 27.309 15.645 27.309C15.6272 27.309 15.2719 27.4821 14.8543 27.6951Z" fill="#D4C19C"/>
<path d="M60.8961 30.3619C60.8028 30.5749 60.6296 30.9344 60.5096 31.1651C60.2609 31.6444 60.2076 31.8707 60.2031 32.5452C60.2031 33.162 60.3364 33.7166 60.5585 34.0051L60.6384 34.1116L60.8872 33.7344C61.0249 33.5258 61.2426 33.162 61.3803 32.9179C61.5979 32.523 61.629 32.4387 61.669 32.0748C61.7623 31.2805 61.5535 30.4241 61.1715 30.0691L61.0693 29.9714L60.8961 30.3619Z" fill="#D4C19C"/>
<path d="M14.1435 30.5798C13.5305 30.9836 13.1352 31.2942 12.9753 31.4939C12.6243 31.9243 12.3667 32.652 12.3667 33.22C12.3667 33.4996 12.4378 33.9211 12.4866 33.9211C12.5133 33.9211 13.6593 32.9405 13.837 32.7585C14.0547 32.5411 14.4767 31.6758 14.5433 31.3031C14.6055 30.9702 14.6099 30.4954 14.5566 30.3978C14.5255 30.3401 14.4545 30.3712 14.1435 30.5798Z" fill="#D4C19C"/>
<path d="M61.6778 33.4768C61.62 33.5789 61.4068 33.9117 61.1981 34.2223C60.6828 34.9855 60.554 35.3849 60.554 36.2058C60.554 36.654 60.6739 37.2042 60.7938 37.2752C60.8471 37.3107 60.8693 37.2841 61.5134 36.4943C62.0065 35.8863 62.0065 35.8908 62.1176 35.4204C62.2375 34.9145 62.2375 34.2534 62.1176 33.885C62.0243 33.6011 61.8644 33.2993 61.8111 33.2993C61.7933 33.2993 61.7311 33.3792 61.6778 33.4768Z" fill="#D4C19C"/>
<path d="M13.4548 33.7965C12.6552 34.5154 12.4776 34.7195 12.3265 35.0923C12.0111 35.8599 11.9712 36.601 12.2199 37.1645L12.2999 37.342L12.8329 36.7341C13.4326 36.0596 13.597 35.8156 13.7658 35.3896C13.9035 35.0434 14.0278 34.2891 13.9879 34.0317C13.9523 33.7743 13.8679 33.477 13.8368 33.477C13.8235 33.477 13.6503 33.6235 13.4548 33.7965Z" fill="#D4C19C"/>
<path d="M42.0265 33.7787C41.7867 34.0405 42.1864 34.5375 42.6395 34.542C43.0882 34.5464 43.0793 33.9917 42.6306 33.7477C42.4752 33.6678 42.1109 33.6855 42.0265 33.7787Z" fill="#D4C19C"/>
<path d="M9.4529 35.6559C9.27966 35.7047 8.99981 35.9753 8.91985 36.1662C8.87543 36.2771 8.85767 36.5433 8.85767 37.1912V38.0698L8.99093 38.2961C9.32852 38.8907 10.3102 38.9218 10.7011 38.3583L10.8344 38.1674L10.861 36.2505L10.7233 36.0375C10.5456 35.7579 10.2391 35.607 9.85713 35.6115C9.71054 35.6115 9.52842 35.6337 9.4529 35.6559ZM10.0304 36.4413C10.0748 36.5167 10.0703 37.8746 10.0259 37.9189C9.99927 37.9456 9.91043 37.9589 9.83048 37.95L9.67945 37.9367L9.66612 37.2267C9.66168 36.8406 9.66612 36.4945 9.675 36.4635C9.70166 36.4013 9.99483 36.3836 10.0304 36.4413Z" fill="#D4C19C"/>
<path d="M64.041 35.7133C63.8811 35.7887 63.7745 35.8819 63.6857 36.0106L63.5613 36.2014V38.1627L63.6857 38.3535C64.041 38.8905 65.0049 38.8949 65.3736 38.3624L65.5158 38.1583V36.2058L65.387 36.0195C65.1204 35.6245 64.5252 35.4914 64.041 35.7133ZM64.7384 37.0534C64.7695 37.8743 64.7562 37.932 64.5696 37.9497C64.3919 37.9675 64.3031 37.9054 64.3209 37.7722C64.3253 37.7146 64.3342 37.3862 64.3342 37.0356L64.3386 36.4011L64.5296 36.4144L64.7162 36.4277L64.7384 37.0534Z" fill="#D4C19C"/>
<path d="M0.870642 35.8596C0.604119 35.9528 0.230987 36.3122 0.102167 36.5918C0.0222103 36.7737 0 36.9068 0 37.1819C0 37.6434 0.115493 37.923 0.435321 38.2159C0.830664 38.5709 0.906179 38.5842 2.44313 38.5664C3.66025 38.5531 3.79795 38.5442 4.10446 38.4555C4.99287 38.1892 6.22331 38.0117 7.436 37.9718C7.88908 37.9585 8.29331 37.9274 8.33773 37.9052C8.40436 37.8697 8.41325 37.7899 8.41325 37.2041C8.41325 36.6938 8.39992 36.5296 8.35106 36.4808C8.3022 36.432 8.08009 36.4143 7.42711 36.3921C6.20999 36.3521 5.37932 36.2323 4.18441 35.935L3.57585 35.7842L2.31875 35.7886C1.31929 35.7886 1.02167 35.8063 0.870642 35.8596Z" fill="#D4C19C"/>
<path d="M70.0777 35.9664C68.9983 36.2371 67.6835 36.4057 66.6174 36.4057C66.2265 36.4057 66.1065 36.419 66.0532 36.4767C65.9555 36.5744 65.9466 37.7858 66.0443 37.8834C66.0932 37.9278 66.3153 37.95 66.9683 37.9721C68.1987 38.0165 69.176 38.1541 70.2865 38.447C70.7885 38.5801 70.7973 38.5801 72.0233 38.5801C73.4715 38.5801 73.5825 38.5579 73.9556 38.2162C74.2755 37.9233 74.3954 37.6438 74.3998 37.1823C74.3998 36.8805 74.3821 36.7874 74.2755 36.5744C74.2044 36.4279 74.0578 36.2371 73.929 36.1217C73.5692 35.7978 73.4803 35.7845 72.0278 35.7889L70.7574 35.7934L70.0777 35.9664Z" fill="#D4C19C"/>
<path d="M61.7137 37.0979C61.5093 37.3331 61.3006 37.5683 61.2517 37.626C61.2028 37.6792 61.1007 37.7946 61.0207 37.8789C60.8475 38.0742 60.7409 38.2827 60.5943 38.7131C60.4788 39.0504 60.3588 39.8181 60.4033 39.9379C60.421 39.9867 60.5143 40 60.7942 40H61.1629L61.5493 39.6184C61.8736 39.2989 61.958 39.1835 62.069 38.9173C62.38 38.1718 62.42 37.3065 62.1668 36.8139L62.0912 36.6675L61.7137 37.0979Z" fill="#D4C19C"/>
<path d="M13.1349 37.1911C12.3887 38.1008 12.3753 38.123 12.2554 38.6466C12.1843 38.9439 12.1621 39.6716 12.211 39.8802C12.2421 40 12.2465 40 12.633 40H13.0283L13.2993 39.6228C13.6147 39.1835 13.7124 38.9306 13.8146 38.2694C13.8768 37.87 13.8812 37.728 13.8368 37.444C13.7835 37.0935 13.6458 36.7163 13.5703 36.7163C13.5481 36.7163 13.3526 36.9293 13.1349 37.1911Z" fill="#D4C19C"/>
</svg>
