<svg xmlns="http://www.w3.org/2000/svg" width="35" height="35" viewBox="0 0 35 35"><g transform="translate(-14 -48)"><circle cx="15.5" cy="15.5" r="15.5" transform="translate(16 50)" fill="#2d4937"/><g transform="translate(22 46)"><g transform="translate(-8 2)"><path d="M17.5,0l.49.007A17.5,17.5,0,1,1,17.5,0Zm3.465,10.5a1.289,1.289,0,0,0-1.855,0h0L13,16.573a1.31,1.31,0,0,0,0,1.855h0L19.11,24.5a1.231,1.231,0,0,0,.91.385,1.3,1.3,0,0,0,.928-2.24h0L15.785,17.5l5.162-5.145A1.3,1.3,0,0,0,20.965,10.5Z" fill="#f8faf8"/></g></g></g></svg>