<svg xmlns="http://www.w3.org/2000/svg" width="36" height="36" viewBox="0 0 36 36"><g transform="translate(-308 -27)"><rect width="36" height="36" rx="18" transform="translate(308 27)" fill="#25af60"/><g transform="translate(332 37) rotate(90)"><g transform="translate(0 0)"><path d="M.227,8.767a.76.76,0,0,0,1.008.077l.087-.077L8,1.918l6.678,6.85a.76.76,0,0,0,1.008.077l.087-.077a.81.81,0,0,0,.075-1.034l-.075-.089L8.547.233A.76.76,0,0,0,7.539.156L7.453.233.227,7.644A.809.809,0,0,0,.227,8.767Z" transform="translate(0 0)" fill="#fff"/><path d="M15.226,9.5a1.256,1.256,0,0,1-.905-.384L8,2.634,1.653,9.142l-.116.1A1.26,1.26,0,0,1-.131,9.116a1.313,1.313,0,0,1,0-1.821L7.121-.142l.116-.1A1.268,1.268,0,0,1,8-.5a1.256,1.256,0,0,1,.905.384l7.25,7.439.1.118a1.3,1.3,0,0,1-.122,1.676l-.027.025-.115.1A1.268,1.268,0,0,1,15.226,9.5ZM8,1.2l7.036,7.217a.263.263,0,0,0,.189.082.258.258,0,0,0,.147-.045l.052-.046a.309.309,0,0,0,.026-.37L15.4,7.98,8.189.582A.263.263,0,0,0,8,.5a.258.258,0,0,0-.147.045L7.8.595.585,7.993a.31.31,0,0,0,0,.425A.263.263,0,0,0,.774,8.5a.258.258,0,0,0,.147-.045l.056-.049Z" transform="translate(0 0)" fill="#fff"/></g></g></g></svg>