<svg xmlns="http://www.w3.org/2000/svg" width="36" height="36" viewBox="0 0 36 36"><rect width="36" height="36" rx="18" fill="#83a77a"/><path d="M18,1A17,17,0,0,0,5.979,30.021,17,17,0,0,0,30.021,5.979,16.889,16.889,0,0,0,18,1m0-1A18,18,0,1,1,0,18,18,18,0,0,1,18,0Z" fill="#fff"/><g transform="translate(6 6)"><g transform="translate(3 2)"><path d="M13.191,0C16.28,0,18,1.78,18,4.83h0V15.16c0,3.1-1.72,4.84-4.809,4.84H4.81C1.77,20,0,18.26,0,15.16H0V4.83C0,1.78,1.77,0,4.81,0h8.381ZM5.08,13.74a.784.784,0,0,0-.75.37.8.8,0,0,0,0,.84.777.777,0,0,0,.75.36h7.84a.79.79,0,0,0,0-1.57H5.08Zm7.84-4.561H5.08a.781.781,0,0,0,0,1.561h7.84a.781.781,0,0,0,0-1.561ZM8.069,4.65H5.08v.01a.78.78,0,1,0,0,1.56H8.069a.785.785,0,0,0,0-1.57Z" fill="#fff"/></g></g></svg>