<svg width="40" height="40" viewBox="0 0 40 40" fill="none" xmlns="http://www.w3.org/2000/svg">
<g id="Group 1844">
<circle id="Ellipse 1" cx="20" cy="20" r="20" fill="#F9FBF8"/>
<path id="Vector" d="M9.58414 29.9515C9.41362 29.8926 9.26568 29.7817 9.16097 29.6343C9.05625 29.4869 8.99998 29.3103 9 29.1293C9 25.1567 9.79473 21.9797 11.3631 19.6858C13.2579 16.9142 16.2468 15.4219 20.2605 15.2366V10.8694C20.2606 10.6992 20.3104 10.5327 20.4038 10.3906C20.4972 10.2485 20.6302 10.137 20.7861 10.0701C20.942 10.0031 21.1141 9.98358 21.281 10.0139C21.4479 10.0442 21.6023 10.1231 21.725 10.2407L31.2531 19.3706C31.3378 19.4518 31.4052 19.5494 31.4512 19.6574C31.4973 19.7655 31.521 19.8818 31.521 19.9994C31.521 20.1169 31.4973 20.2332 31.4512 20.3413C31.4052 20.4494 31.3378 20.5469 31.2531 20.6281L21.725 29.7581C21.6023 29.8756 21.4479 29.9545 21.281 29.9848C21.1141 30.0152 20.942 29.9956 20.7861 29.9287C20.6302 29.8617 20.4972 29.7503 20.4038 29.6082C20.3104 29.4661 20.2606 29.2996 20.2605 29.1293V24.7942C17.8244 24.8681 15.9837 25.2643 14.5182 26.0246C12.9347 26.8463 11.7864 28.0739 10.5489 29.6657C10.4378 29.8084 10.2852 29.9127 10.1123 29.9642C9.93932 30.0156 9.75469 30.0116 9.58414 29.9526V29.9515Z" fill="#51B35E"/>
</g>
</svg>
