<svg xmlns="http://www.w3.org/2000/svg" width="36" height="36" viewBox="0 0 36 36"><rect width="36" height="36" rx="18" transform="translate(0 0)" fill="#fefbe8"/><path d="M18,1A17,17,0,0,0,5.979,30.021,17,17,0,0,0,30.021,5.979,16.889,16.889,0,0,0,18,1m0-1A18,18,0,1,1,0,18,18,18,0,0,1,18,0Z" transform="translate(0 0)" fill="#e5b357"/><g transform="translate(7 7)"><g transform="translate(2 2)"><path d="M6.345,0A2.668,2.668,0,0,1,8.478,1.035h0L9.27,2.088a1.327,1.327,0,0,0,1.035.5h2.763C16.389,2.592,18.009,4.365,18,8h0v4.383C18,15.858,15.858,18,12.375,18H5.616C2.151,18,0,15.858,0,12.375H0V5.616C0,1.89,1.656,0,4.923,0H6.345Zm6.822,10.611H4.833a.675.675,0,1,0,0,1.35h8.334a.675.675,0,0,0,0-1.35Z" transform="translate(0 0)" fill="#efb041"/></g></g></svg>