<svg xmlns="http://www.w3.org/2000/svg" width="40" height="40" viewBox="0 0 40 40" fill="none">
  <circle cx="20" cy="20" r="19.5" fill="#FEFBE8" stroke="#EFB041"/>
  <path d="M30.1678 21.2892L27.5813 25.7234C27.38 26.0684 27.0918 26.3547 26.7454 26.5537C26.3989 26.7527 26.0064 26.8574 25.6069 26.8574H11.3225C10.661 26.8574 10.2488 26.1397 10.5821 25.5683L13.1687 21.1342C13.37 20.7891 13.6582 20.5028 14.0046 20.3039C14.351 20.1049 14.7436 20.0002 15.1431 20.0002H29.4275C30.089 20.0002 30.5012 20.7178 30.1678 21.2892ZM15.1431 18.8574H26.8573V17.1431C26.8573 16.1963 26.0898 15.4288 25.1431 15.4288H19.4288L17.1431 13.1431H11.4288C10.482 13.1431 9.71448 13.9106 9.71448 14.8574V24.7876L12.1815 20.5584C12.7935 19.5091 13.9284 18.8574 15.1431 18.8574Z" fill="#EFB041"/>
</svg>