<svg xmlns="http://www.w3.org/2000/svg" width="36" height="36" viewBox="0 0 36 36" fill="none">
  <path d="M36 18C36 8.05887 27.9411 0 18 0C8.05887 0 0 8.05887 0 18C0 27.9411 8.05887 36 18 36C27.9411 36 36 27.9411 36 18Z" fill="#F5F5F5"/>
  <path d="M18 21.174C22.339 21.174 26 21.879 26 24.599C26 27.319 22.315 28 18 28C13.662 28 10 27.295 10 24.575C10 21.855 13.685 21.174 18 21.174ZM18 8.00004C19.0466 8.00044 20.0696 8.31117 20.9396 8.89295C21.8097 9.47472 22.4876 10.3014 22.8878 11.2685C23.288 12.2356 23.3925 13.2996 23.188 14.3261C22.9835 15.3525 22.4792 16.2953 21.7389 17.0351C20.9987 17.775 20.0556 18.2787 19.0291 18.4826C18.0025 18.6865 16.9385 18.5815 15.9717 18.1807C15.0048 17.78 14.1785 17.1015 13.5972 16.2312C13.016 15.3608 12.7058 14.3377 12.706 13.291C12.7036 12.5953 12.8389 11.906 13.1042 11.2628C13.3694 10.6196 13.7593 10.0352 14.2515 9.54337C14.7436 9.05154 15.3281 8.66196 15.9715 8.39708C16.6148 8.13221 17.3043 7.99727 18 8.00004Z" fill="#DDDDDD"/>
</svg>