<svg xmlns="http://www.w3.org/2000/svg" width="36" height="36" viewBox="0 0 36 36"><rect width="36" height="36" rx="18" transform="translate(0 0)" fill="#fefbe8"/><path d="M18,1A17,17,0,0,0,5.979,30.021,17,17,0,0,0,30.021,5.979,16.889,16.889,0,0,0,18,1m0-1A18,18,0,1,1,0,18,18,18,0,0,1,18,0Z" transform="translate(0 0)" fill="#e5b357"/><path d="M7.178,20.9C1.124,12.126,0,11.226,0,8A8,8,0,0,1,16,8c0,3.226-1.124,4.126-7.178,12.9a1,1,0,0,1-1.644,0ZM8,11.333A3.333,3.333,0,1,0,4.667,8,3.333,3.333,0,0,0,8,11.333Z" transform="translate(10 7)" fill="#efb041"/></svg>