<svg xmlns="http://www.w3.org/2000/svg" width="36" height="36" viewBox="0 0 36 36"><rect width="36" height="36" rx="18" fill="#83a77a"/><path d="M18,1A17,17,0,0,0,5.979,30.021,17,17,0,0,0,30.021,5.979,16.889,16.889,0,0,0,18,1m0-1A18,18,0,1,1,0,18,18,18,0,0,1,18,0Z" fill="#fff"/><g transform="translate(7 7)"><g transform="translate(1 3)"><path d="M19.308,8.037a.664.664,0,1,1,0,1.327h-.965v3.164A3.553,3.553,0,0,1,14.722,16H13.274a.664.664,0,1,1,0-1.328h1.448a2.195,2.195,0,0,0,2.237-2.145h0V9.363H14.575v.881a2.04,2.04,0,0,1-2.064,2.014H7.489a2.04,2.04,0,0,1-2.063-2.014h0V9.363H3.042v3.168a2.192,2.192,0,0,0,2.231,2.141h1.48a.664.664,0,1,1,0,1.328H5.271a3.55,3.55,0,0,1-3.614-3.468h0V9.363H.693a.664.664,0,1,1,0-1.327H19.308Zm-6.8-4.71a2.09,2.09,0,0,1,1.463.589,1.992,1.992,0,0,1,.6,1.425h0V6.448a.252.252,0,0,1-.248.239H5.672a.25.25,0,0,1-.246-.239h0V5.341A2.04,2.04,0,0,1,7.49,3.327h5.022ZM14.721,0a3.552,3.552,0,0,1,3.621,3.472h0v1.65a.692.692,0,0,1-1.384,0h0V3.472a2.2,2.2,0,0,0-2.237-2.145H13.273a.678.678,0,0,1-.692-.662A.679.679,0,0,1,13.273,0h1.448ZM6.752,0a.679.679,0,0,1,.692.664.678.678,0,0,1-.692.663H5.272A2.191,2.191,0,0,0,3.042,3.469h0V5.122a.68.68,0,0,1-.693.664.679.679,0,0,1-.692-.664h0V3.469A3.549,3.549,0,0,1,5.271,0H6.752Z" transform="translate(0 0)" fill="#fff"/></g></g></svg>