<svg xmlns="http://www.w3.org/2000/svg" width="36" height="36" viewBox="0 0 36 36"><rect width="36" height="36" rx="18" fill="#83a77a"/><path d="M18,1A17,17,0,0,0,5.979,30.021,17,17,0,0,0,30.021,5.979,16.889,16.889,0,0,0,18,1m0-1A18,18,0,1,1,0,18,18,18,0,0,1,18,0Z" fill="#fff"/><g transform="translate(6.5 7)"><g transform="translate(3.5 2)"><path d="M8.537.095,14.784,2.21A1.717,1.717,0,0,1,15.96,3.821L16,10.13a7.876,7.876,0,0,1-1.943,5.221,7.955,7.955,0,0,1-2.28,1.752L8.419,18.914A.731.731,0,0,1,8.081,19a.713.713,0,0,1-.337-.082l-3.389-1.77a7.973,7.973,0,0,1-2.3-1.726,7.876,7.876,0,0,1-2.013-5.2L0,3.918A1.721,1.721,0,0,1,1.156,2.292L7.379.1A1.762,1.762,0,0,1,8.537.095Zm2.987,6.763a.719.719,0,0,0-1.005.006h0l-3.17,3.154-1.3-1.259a.719.719,0,0,0-1.005.007.69.69,0,0,0,.007.987h0l1.8,1.751A.72.72,0,0,0,7.86,11.5h0l3.67-3.652A.69.69,0,0,0,11.525,6.858Z" transform="translate(0 0)" fill="#fff"/></g></g></svg>