<svg xmlns="http://www.w3.org/2000/svg" width="35.999" height="35.999" viewBox="0 0 35.999 35.999">
  <path id="Subtraction_3" data-name="Subtraction 3" d="M-8273,36a17.885,17.885,0,0,1-7.006-1.414,17.951,17.951,0,0,1-5.723-3.857,17.962,17.962,0,0,1-3.857-5.721A17.883,17.883,0,0,1-8291,18a17.888,17.888,0,0,1,1.414-7.007,17.963,17.963,0,0,1,3.857-5.722,17.951,17.951,0,0,1,5.723-3.858A17.884,17.884,0,0,1-8273,0a17.893,17.893,0,0,1,7.007,1.415,17.944,17.944,0,0,1,5.722,3.858,17.957,17.957,0,0,1,3.856,5.722A17.888,17.888,0,0,1-8255,18a17.883,17.883,0,0,1-1.414,7.006,17.956,17.956,0,0,1-3.856,5.721,17.944,17.944,0,0,1-5.722,3.857A17.893,17.893,0,0,1-8273,36Zm.5-27a8.16,8.16,0,0,0-3.411.7,7.845,7.845,0,0,0-2.634,1.923,9.2,9.2,0,0,0-1.728,2.913,11.856,11.856,0,0,0-.715,3.668,11.92,11.92,0,0,0,.416,3.82,7.077,7.077,0,0,0,1.491,2.753,6.316,6.316,0,0,0,2.484,1.667,9.715,9.715,0,0,0,3.411.56,8.582,8.582,0,0,0,1.868-.214,7.175,7.175,0,0,0,.9-.264,3.865,3.865,0,0,0,.758-.383l-.35-1.6a6.306,6.306,0,0,1-.679.248c-.276.082-.534.146-.786.2a8.7,8.7,0,0,1-1.671.183,6.982,6.982,0,0,1-2.547-.435,4.552,4.552,0,0,1-1.846-1.309,5.538,5.538,0,0,1-1.088-2.181,10.1,10.1,0,0,1-.277-3.04,11.093,11.093,0,0,1,.541-2.982,7.648,7.648,0,0,1,1.284-2.393,5.9,5.9,0,0,1,1.96-1.59,5.69,5.69,0,0,1,2.578-.574,6.43,6.43,0,0,1,2.609.487,4.681,4.681,0,0,1,1.792,1.373,5.585,5.585,0,0,1,1,2.131,9.58,9.58,0,0,1,.227,2.753,8.148,8.148,0,0,1-.179,1.473,5.141,5.141,0,0,1-.407,1.184,2.488,2.488,0,0,1-.605.787,1.189,1.189,0,0,1-.77.285,1.176,1.176,0,0,1-.363-.058.736.736,0,0,1-.322-.212.934.934,0,0,1-.2-.41,1.918,1.918,0,0,1-.015-.664l.482-5.668c-.218-.151-.4-.278-.587-.4a4.106,4.106,0,0,0-.639-.343,3.93,3.93,0,0,0-.771-.237,5.18,5.18,0,0,0-1-.085h-.027a3.773,3.773,0,0,0-1.635.377,4.2,4.2,0,0,0-1.367,1.078,6.06,6.06,0,0,0-1,1.69,8.58,8.58,0,0,0-.536,2.208,6.088,6.088,0,0,0,.068,1.8,3.98,3.98,0,0,0,.541,1.38,2.584,2.584,0,0,0,.933.884,2.531,2.531,0,0,0,1.24.308,2.937,2.937,0,0,0,2.49-1.276,2.353,2.353,0,0,0,.928.972,2.717,2.717,0,0,0,1.374.343,3.627,3.627,0,0,0,1.9-.479,4.1,4.1,0,0,0,1.3-1.257,5.876,5.876,0,0,0,.766-1.767,9.4,9.4,0,0,0,.293-2.014,10.248,10.248,0,0,0-.383-3.381,7,7,0,0,0-1.417-2.624,6.432,6.432,0,0,0-2.385-1.7A8.5,8.5,0,0,0-8272.5,9Zm-.824,11.95h0a1,1,0,0,1-.959-.641,3.887,3.887,0,0,1-.193-1.9,9.655,9.655,0,0,1,.26-1.509,3.961,3.961,0,0,1,.46-1.1,1.908,1.908,0,0,1,.691-.67,2,2,0,0,1,.975-.229,2.217,2.217,0,0,1,.587.079l-.376,4.4a3.7,3.7,0,0,1-.354.8,2,2,0,0,1-.385.472,1.173,1.173,0,0,1-.376.231A1.118,1.118,0,0,1-8273.326,20.949Z" transform="translate(8291)" fill="#83a77a"/>
</svg>
